<?xml version="1.0" standalone="no"?>
<!DOCTYPE svg PUBLIC "-//W3C//DTD SVG 20010904//EN"
 "http://www.w3.org/TR/2001/REC-SVG-20010904/DTD/svg10.dtd">
<svg version="1.0" xmlns="http://www.w3.org/2000/svg"
 width="1115.000000pt" height="588.000000pt" viewBox="0 0 1115.000000 588.000000"
 preserveAspectRatio="xMidYMid meet">
<metadata>
Created by potrace 1.16, written by Peter Selinger 2001-2019
</metadata>
<g transform="translate(0.000000,588.000000) scale(0.100000,-0.100000)"
fill="#000000" stroke="none">
<path d="M3890 5429 c0 -90 2 -100 18 -97 13 2 18 16 22 63 l5 59 35 -59 c24
-41 42 -61 58 -63 22 -3 22 -1 22 97 0 94 -1 101 -20 101 -18 0 -20 -7 -20
-61 0 -33 -4 -58 -9 -55 -5 3 -23 31 -40 61 -21 38 -37 55 -51 55 -19 0 -20
-7 -20 -101z"/>
<path d="M6550 5430 c0 -93 1 -100 20 -100 17 0 20 7 20 40 0 38 2 40 30 40
31 0 34 -3 44 -52 4 -19 13 -28 26 -28 23 0 27 31 10 76 -8 19 -8 30 0 38 16
16 12 51 -8 69 -13 12 -37 17 -80 17 l-62 0 0 -100z"/>
<path d="M4250 5403 c0 -66 2 -73 20 -73 16 0 19 8 22 58 2 43 7 57 18 57 11
0 16 -14 18 -57 3 -50 6 -58 22 -58 17 0 20 7 20 48 0 55 11 77 34 69 12 -5
16 -20 16 -62 0 -48 2 -55 20 -55 18 0 20 7 20 56 0 30 -5 64 -10 75 -12 22
-59 26 -78 7 -9 -9 -12 -9 -12 0 0 7 -19 11 -55 10 l-55 -2 0 -73z"/>
<path d="M5357 5473 c-4 -3 -7 -48 -7 -100 0 -86 1 -93 20 -93 16 0 20 7 20
30 0 27 3 30 24 24 41 -10 65 4 77 45 9 30 9 44 -2 67 -16 32 -60 44 -85 23
-10 -8 -14 -8 -14 0 0 12 -23 15 -33 4z"/>
<path d="M6082 5468 c-7 -7 -12 -18 -12 -25 0 -15 26 -18 35 -3 3 6 15 10 26
10 30 0 18 -24 -13 -28 -40 -5 -64 -36 -50 -66 9 -21 17 -24 69 -23 l58 0 -3
61 c-2 34 -9 67 -14 74 -13 15 -80 16 -96 0z"/>
<path d="M3052 4603 l3 -388 1375 0 1375 0 3 193 2 192 165 0 c170 0 176 -1
155 -41 -14 -25 -9 -24 50 6 27 14 54 25 60 25 6 0 10 -66 10 -190 l0 -190
2365 0 2365 0 0 390 0 390 -2365 0 -2365 0 0 -190 c0 -104 -2 -190 -5 -190 -3
0 -33 14 -67 31 -63 32 -62 33 -41 -18 4 -10 -32 -13 -161 -13 l-166 0 0 190
0 190 -1380 0 -1380 0 2 -387z m2738 2 l0 -375 -1360 0 -1360 0 0 375 0 375
1360 0 1360 0 0 -375z m5178 -2 l2 -373 -2355 0 -2355 0 0 368 c0 203 3 372 7
375 3 4 1062 6 2352 5 l2346 -3 3 -372z"/>
<path d="M7220 4615 c0 -98 18 -116 22 -22 l3 62 21 -60 c28 -81 45 -81 71 -3
l21 63 1 -62 c1 -49 4 -63 16 -63 12 0 15 16 15 85 0 77 -2 85 -19 85 -15 0
-24 -15 -41 -65 -12 -36 -25 -63 -30 -60 -4 2 -16 32 -26 65 -14 43 -24 60
-36 60 -16 0 -18 -11 -18 -85z"/>
<path d="M3050 3690 l0 -390 1380 0 1380 0 0 190 0 190 166 0 c144 0 165 -2
160 -15 -3 -8 -9 -22 -12 -31 -5 -12 5 -10 45 10 65 33 67 54 6 84 -56 27 -58
27 -45 1 7 -11 10 -22 8 -24 -4 -4 -117 -7 -230 -6 l-98 1 -2 188 -3 187
-1377 3 -1378 2 0 -390z m2740 0 l0 -370 -1360 0 -1360 0 0 370 0 370 1360 0
1360 0 0 -370z"/>
<path d="M6300 4072 c0 -4 513 -7 1140 -7 627 -1 1140 3 1140 7 0 4 -513 8
-1140 8 -627 0 -1140 -3 -1140 -8z"/>
<path d="M8660 4072 c0 -4 513 -7 1140 -7 627 0 1140 3 1140 7 0 5 -513 8
-1140 8 -627 0 -1140 -3 -1140 -8z"/>
<path d="M7130 3700 c0 -105 18 -123 22 -23 l3 67 25 -63 c14 -35 29 -64 35
-65 5 0 20 26 32 59 l21 60 4 -59 c2 -36 8 -61 16 -64 9 -3 12 19 12 87 0 81
-2 91 -18 91 -14 0 -24 -18 -41 -70 -12 -38 -24 -70 -26 -70 -2 0 -14 32 -26
70 -17 52 -27 70 -41 70 -16 0 -18 -10 -18 -90z"/>
<path d="M9772 3735 c-33 -24 -31 -89 4 -112 21 -14 29 -14 46 -4 17 11 19 10
16 -6 -3 -15 -12 -17 -47 -15 -31 2 -42 -1 -39 -10 7 -21 55 -33 86 -22 26 9
27 12 30 92 3 80 2 82 -20 81 -13 -1 -30 1 -38 5 -8 3 -25 -1 -38 -9z"/>
<path d="M6303 3308 c-2 -5 510 -8 1138 -8 628 0 1139 3 1135 7 -9 10 -2267
10 -2273 1z"/>
<path d="M8663 3308 c-2 -5 510 -8 1138 -8 628 0 1139 3 1135 7 -10 10 -2267
10 -2273 1z"/>
<path d="M160 2545 l0 -615 1300 0 1300 0 0 305 0 305 90 0 c93 0 100 -3 79
-41 -9 -17 -2 -16 50 11 33 16 63 30 66 30 3 0 5 -137 5 -305 l0 -305 1380 0
1380 0 0 305 0 305 166 0 c144 0 165 -2 160 -15 -3 -8 -9 -22 -12 -31 -5 -11
10 -7 54 15 34 17 64 31 67 31 3 0 5 -137 5 -305 l0 -305 2365 0 2365 0 0 615
0 615 -2365 0 -2365 0 0 -300 c0 -200 -3 -300 -10 -300 -6 0 -33 11 -60 25
-59 30 -64 31 -50 6 21 -40 15 -41 -155 -41 l-165 0 0 305 0 305 -1380 0
-1380 0 0 -300 c0 -200 -3 -300 -10 -300 -6 0 -33 11 -60 25 -59 30 -64 31
-50 6 20 -39 13 -42 -77 -39 l-88 3 -3 303 -2 302 -1300 0 -1300 0 0 -615z
m2588 3 l2 -598 -1290 0 -1290 0 0 600 0 600 1288 -2 1287 -3 3 -597z m3042 2
l0 -600 -1360 0 -1360 0 0 600 0 600 1360 0 1360 0 0 -600z m5180 0 l0 -600
-2355 0 -2355 0 0 600 0 600 2355 0 2355 0 0 -600z"/>
<path d="M330 2845 l0 -85 55 0 c47 0 57 3 71 25 14 22 15 27 2 48 -12 17 -13
26 -4 40 20 32 -4 52 -68 55 l-56 3 0 -86z"/>
<path d="M3950 2757 c0 -20 -4 -23 -29 -19 -54 8 -83 -76 -41 -118 21 -21 45
-26 54 -11 3 4 17 6 31 3 l25 -4 0 86 c0 79 -2 86 -20 86 -14 0 -20 -7 -20
-23z"/>
<path d="M5210 2757 c0 -20 -4 -23 -29 -19 -54 8 -83 -76 -41 -118 21 -21 45
-26 54 -11 3 4 17 6 31 3 l25 -4 0 86 c0 79 -2 86 -20 86 -14 0 -20 -7 -20
-23z"/>
<path d="M3280 2467 c0 -20 -4 -23 -29 -19 -34 5 -61 -26 -61 -70 0 -35 35
-72 58 -62 9 3 29 6 45 5 l27 -1 0 85 c0 78 -2 85 -20 85 -14 0 -20 -7 -20
-23z"/>
<path d="M4270 2466 c0 -19 -4 -22 -25 -18 -36 6 -65 -23 -65 -65 0 -40 33
-78 58 -67 9 3 27 6 40 5 21 -1 22 2 22 84 0 69 -3 85 -15 85 -9 0 -15 -9 -15
-24z"/>
<path d="M4840 2405 c0 -94 -7 -85 70 -86 31 0 50 25 50 66 0 40 -30 69 -65
63 -21 -4 -25 -1 -25 18 0 15 -6 24 -15 24 -12 0 -15 -16 -15 -85z"/>
<path d="M9550 2533 c0 -56 2 -63 20 -63 17 0 20 7 20 51 0 43 3 50 18 47 13
-2 18 -15 20 -51 2 -32 8 -47 17 -47 9 0 15 15 17 47 2 36 7 49 21 51 14 3 17
-4 17 -47 0 -44 3 -51 20 -51 18 0 20 7 20 54 0 31 -5 58 -12 64 -7 5 -50 10
-95 9 l-83 0 0 -64z"/>
<path d="M160 1175 l0 -615 1300 0 1300 0 0 305 0 305 90 0 c93 0 100 -3 79
-41 -10 -19 -9 -20 18 -6 15 7 44 21 63 30 l35 16 3 -305 2 -304 1380 0 1380
0 0 305 0 305 166 0 c144 0 165 -2 160 -15 -3 -8 -9 -22 -12 -31 -5 -11 10 -7
54 15 34 17 64 31 67 31 3 0 5 -137 5 -305 l0 -305 2365 0 2365 0 0 615 0 615
-2365 0 -2365 0 0 -300 c0 -200 -3 -300 -10 -300 -6 0 -33 11 -60 25 -59 30
-64 31 -50 6 21 -40 15 -41 -155 -41 l-165 0 0 305 0 305 -1380 0 -1380 0 0
-305 0 -305 -60 30 c-70 35 -74 36 -60 11 20 -37 13 -41 -80 -41 l-90 0 0 305
0 305 -1300 0 -1300 0 0 -615z m2590 5 l0 -600 -1290 0 -1290 0 0 600 0 600
1290 0 1290 0 0 -600z m3040 0 l0 -600 -1360 0 -1360 0 0 600 0 600 1360 0
1360 0 0 -600z m5180 0 l0 -600 -2355 0 -2355 0 0 600 0 600 2355 0 2355 0 0
-600z"/>
<path d="M3990 1384 c0 -21 -4 -24 -20 -19 -70 22 -106 -90 -40 -125 13 -7 26
-7 37 -2 9 5 24 7 34 5 17 -5 19 2 19 81 0 70 -3 86 -15 86 -9 0 -15 -10 -15
-26z"/>
<path d="M5247 1403 c-4 -3 -7 -14 -7 -23 0 -12 -6 -16 -22 -13 -31 6 -56 -16
-64 -54 -5 -26 -1 -37 20 -58 18 -18 32 -25 44 -20 9 4 27 7 40 6 21 -1 22 2
22 84 0 64 -3 85 -13 85 -8 0 -17 -3 -20 -7z"/>
<path d="M4390 1305 c0 -50 3 -65 14 -65 11 0 16 14 18 47 2 36 7 49 21 51 14
3 17 -4 17 -47 0 -44 3 -51 19 -51 17 0 20 8 23 48 2 34 7 47 18 47 11 0 16
-13 18 -47 3 -40 6 -48 23 -48 16 0 19 7 19 49 0 32 -6 55 -16 65 -17 18 -50
21 -59 6 -4 -6 -13 -5 -25 3 -16 9 -24 9 -40 -1 -12 -7 -20 -8 -20 -2 0 5 -7
10 -15 10 -12 0 -15 -14 -15 -65z"/>
<path d="M3270 1094 c0 -21 -4 -24 -20 -19 -11 3 -29 4 -39 0 -24 -7 -45 -57
-36 -85 9 -30 50 -54 71 -42 9 5 25 7 35 5 17 -5 19 2 19 81 0 70 -3 86 -15
86 -9 0 -15 -10 -15 -26z"/>
<path d="M4240 1097 c0 -20 -4 -23 -29 -19 -54 8 -83 -76 -41 -118 21 -21 45
-26 54 -11 3 5 15 7 26 4 19 -5 20 0 20 81 0 70 -3 86 -15 86 -9 0 -15 -9 -15
-23z"/>
<path d="M5080 1013 c0 -56 2 -63 20 -63 17 0 20 7 20 51 0 43 3 50 18 47 13
-2 18 -15 20 -51 2 -32 8 -47 17 -47 9 0 15 15 17 47 2 36 7 49 21 51 14 3 17
-4 17 -47 0 -44 3 -51 20 -51 17 0 20 7 20 48 0 27 -6 57 -14 68 -13 17 -18
18 -45 7 -17 -6 -33 -8 -36 -3 -3 4 -25 8 -50 8 l-45 -1 0 -64z"/>
<path d="M3790 745 c0 -94 -7 -85 70 -86 31 0 50 25 50 66 0 41 -30 70 -65 61
-22 -6 -25 -3 -25 19 0 16 -6 25 -15 25 -12 0 -15 -16 -15 -85z"/>
<path d="M4300 807 c0 -20 -4 -23 -29 -19 -49 7 -81 -66 -47 -110 14 -19 30
-22 84 -20 l32 2 0 85 c0 78 -2 85 -20 85 -14 0 -20 -7 -20 -23z"/>
<path d="M4015 773 c-19 -19 -19 -87 0 -103 8 -7 28 -10 45 -8 32 5 35 1 21
-20 -6 -10 -19 -11 -47 -7 -37 7 -38 7 -22 -11 20 -20 70 -23 92 -4 12 9 16
32 16 90 l0 77 -45 1 c-28 0 -51 -6 -60 -15z"/>
<path d="M8840 1252 c0 -26 -3 -28 -30 -24 -42 6 -60 -13 -60 -63 0 -53 14
-65 73 -63 l47 1 0 88 c0 72 -3 89 -15 89 -10 0 -15 -10 -15 -28z"/>
<path d="M9200 1191 l0 -88 50 -2 c55 -1 70 13 70 66 0 46 -21 67 -58 60 -30
-6 -32 -5 -32 23 0 20 -5 30 -15 30 -12 0 -15 -17 -15 -89z"/>
<path d="M9620 1138 c0 -72 3 -88 15 -88 10 0 15 10 15 28 0 26 3 28 30 24 40
-6 60 13 60 55 0 59 -13 72 -70 71 l-50 -1 0 -89z"/>
</g>
</svg>
